<?xml version="1.0" standalone="no"?>
<!DOCTYPE svg PUBLIC "-//W3C//DTD SVG 20010904//EN"
 "http://www.w3.org/TR/2001/REC-SVG-20010904/DTD/svg10.dtd">
<svg version="1.0" xmlns="http://www.w3.org/2000/svg"
 width="500.000000pt" height="500.000000pt" viewBox="0 0 500.000000 500.000000"
 preserveAspectRatio="xMidYMid meet">

<g transform="translate(0.000000,500.000000) scale(0.100000,-0.100000)"
fill="#000000" stroke="none">
<path d="M925 4310 c10 -11 20 -20 23 -20 3 0 -3 9 -13 20 -10 11 -20 20 -23
20 -3 0 3 -9 13 -20z"/>
<path d="M992 4228 c36 -42 512 -624 981 -1198 l69 -85 -61 -7 c-39 -4 -82
-18 -118 -38 -31 -16 -60 -27 -64 -23 -7 9 -121 184 -273 421 -94 146 -125
188 -90 120 9 -17 76 -137 149 -267 72 -130 142 -255 154 -279 l22 -42 -24
-33 c-69 -91 -78 -130 -86 -362 l-6 -200 -44 -77 c-24 -43 -91 -137 -148 -210
-127 -164 -146 -208 -147 -338 -1 -127 21 -196 105 -335 37 -61 71 -123 74
-138 8 -30 3 -30 135 5 41 11 112 37 156 59 83 39 188 123 199 160 6 18 16 19
153 19 l147 -1 -71 -33 c-82 -39 -157 -85 -233 -146 l-54 -43 94 -19 c137 -28
181 -52 299 -163 60 -57 122 -106 149 -118 55 -24 135 -26 178 -4 83 43 115
158 66 235 -20 33 -96 65 -133 57 -37 -8 -80 -42 -80 -62 0 -11 7 -7 21 11 17
21 29 26 65 26 126 0 150 -164 30 -209 -50 -19 -108 -1 -158 49 -34 33 -38 43
-38 87 0 134 142 198 283 129 80 -39 121 -91 198 -252 72 -153 114 -209 188
-252 39 -23 57 -27 121 -27 75 1 134 21 195 69 18 14 16 14 -25 1 -143 -49
-257 -18 -310 85 -11 21 -31 101 -45 179 -35 197 -63 261 -143 333 -73 66 -81
68 -288 68 -165 0 -185 2 -174 15 7 8 18 15 26 15 7 0 17 6 21 13 4 8 15 18
24 23 9 5 36 26 60 47 l44 39 -45 -23 c-25 -12 -56 -31 -69 -41 -36 -28 -50
-21 -16 8 29 24 29 24 2 8 -21 -13 -30 -14 -42 -4 -19 15 -38 3 -32 -21 7 -27
-32 -48 -45 -25 -5 9 -15 16 -22 16 -18 0 -43 30 -51 62 -4 16 -10 26 -15 23
-7 -4 -32 21 -63 65 -9 13 -17 21 -17 17 0 -7 -75 68 -103 104 -28 36 -67 116
-67 137 0 11 -7 25 -15 32 -13 11 -12 14 7 29 20 17 22 17 40 -1 10 -10 22
-18 27 -18 20 0 50 37 53 65 2 17 9 38 17 47 15 17 25 15 80 -20 3 -1 8 -21
12 -45 6 -32 7 -28 3 18 -3 33 -6 68 -7 78 -1 20 -13 23 -20 5 -4 -10 -6 -10
-6 0 -1 8 -6 10 -13 6 -9 -5 -9 -2 1 9 9 11 10 17 2 17 -6 0 -11 7 -11 15 0 7
-6 18 -14 22 -7 4 -18 31 -24 58 -10 47 -9 52 12 72 13 12 26 21 28 20 2 -1 0
2 -3 6 -10 12 0 122 17 202 9 39 17 77 19 85 2 8 6 23 10 33 6 13 3 16 -9 11
-9 -3 -16 -12 -16 -18 0 -7 -7 -13 -15 -13 -21 0 -19 13 5 30 11 7 21 25 22
38 4 31 19 47 60 61 l33 12 -30 12 c-17 7 -24 13 -17 14 7 0 20 7 29 15 21 22
47 1 33 -25 -6 -11 -6 -21 -1 -24 12 -8 21 4 21 26 0 13 6 18 18 16 9 -2 16
-10 14 -16 -1 -7 1 -11 5 -11 5 1 13 0 18 -1 6 -1 17 -3 25 -4 23 -2 22 -28
-1 -56 l-21 -25 7 29 6 28 -25 -28 c-21 -24 -27 -27 -35 -14 -7 11 -4 22 12
40 l22 25 -28 -25 c-16 -14 -31 -23 -34 -22 -2 2 -7 1 -10 -2 -4 -3 1 -6 10
-6 25 0 21 -15 -8 -30 -22 -12 -24 -19 -21 -61 3 -37 -3 -60 -23 -101 -21 -44
-26 -67 -26 -135 -1 -46 3 -83 7 -83 4 0 7 -3 7 -7 -4 -25 2 -63 10 -59 4 3 6
-6 3 -19 -5 -27 7 -32 26 -13 19 19 50 -15 32 -36 -10 -13 -10 -16 2 -16 8 0
20 6 27 13 10 10 16 7 33 -15 25 -35 41 -35 76 -3 20 19 22 24 8 19 -16 -6
-18 -4 -13 10 4 10 7 23 7 30 0 6 9 12 20 13 11 1 28 10 37 19 12 11 13 16 4
13 -8 -3 -24 5 -36 17 -15 15 -31 21 -51 18 l-29 -4 30 15 c17 8 41 23 55 34
l25 21 -52 0 c-49 0 -67 10 -43 25 5 3 7 11 5 18 -2 7 7 26 21 42 15 17 23 24
20 18 -16 -30 14 -10 34 22 12 19 25 35 29 35 4 0 13 12 19 26 7 14 16 23 21
20 4 -3 20 8 35 23 17 18 34 27 46 24 10 -3 30 3 44 12 14 10 26 15 26 12 0
-9 -90 -60 -96 -54 -3 2 -18 -7 -33 -20 -27 -24 -28 -27 -15 -52 8 -14 14 -36
14 -48 0 -32 24 -29 37 5 9 23 11 24 12 6 1 -12 -5 -27 -13 -33 -17 -14 -28
-51 -14 -51 5 0 6 -5 3 -10 -4 -6 -3 -10 2 -9 20 3 23 -2 13 -21 -20 -37 -5
-56 39 -52 32 3 42 10 56 35 l16 32 -5 -33 c-4 -28 -2 -32 14 -27 17 5 38 -20
21 -27 -13 -5 -22 -68 -10 -68 6 0 7 -5 2 -12 -4 -7 -8 -32 -9 -54 -1 -40 -29
-93 -48 -94 -5 0 -3 7 4 15 7 8 9 15 4 15 -16 -1 -45 -50 -38 -62 5 -8 10 -6
15 8 7 18 8 17 8 -3 1 -31 15 -36 44 -13 13 11 36 24 51 30 23 8 26 7 26 -13
-1 -49 -29 -135 -64 -194 -20 -34 -36 -66 -36 -71 0 -5 -14 -25 -31 -43 -66
-71 -60 -95 8 -32 26 23 54 43 63 43 21 1 51 25 42 35 -4 5 -2 5 4 2 7 -4 38
5 69 19 46 20 60 22 66 12 6 -10 13 -10 27 -2 9 6 32 15 50 19 20 4 32 13 32
23 0 11 3 13 8 6 8 -12 42 -15 42 -3 0 4 11 10 25 13 14 4 25 13 25 21 0 13
-3 13 -25 -1 -14 -9 -28 -14 -31 -11 -3 3 4 8 15 12 12 3 21 13 21 21 0 8 5
12 10 9 6 -3 10 -1 10 5 0 5 15 19 33 30 l32 20 5 -63 6 -62 24 50 c34 72 34
199 -1 270 l-24 50 -3 -82 c-3 -80 -3 -82 -30 -88 -15 -3 -58 -26 -96 -50 -48
-30 -76 -43 -91 -39 -24 6 -51 -18 -40 -36 11 -18 -9 -10 -36 14 -21 18 -26
31 -25 64 0 22 4 38 8 36 11 -7 58 18 52 28 -3 5 -13 6 -23 3 -32 -13 -48 -13
-48 1 0 8 5 14 10 14 5 0 24 7 42 16 25 12 33 21 30 36 -3 11 -2 18 2 15 3 -4
46 34 94 83 49 50 92 90 95 90 2 0 0 -10 -7 -22 l-11 -21 31 22 c17 12 31 29
31 37 0 10 26 1 90 -31 49 -24 155 -72 235 -105 363 -150 469 -235 494 -397
l7 -48 22 42 c35 66 52 149 52 248 0 163 -41 266 -150 376 -119 120 -244 170
-549 220 -102 16 -188 33 -192 37 -3 4 -11 25 -16 47 -6 22 -14 47 -17 56 -6
14 -1 15 56 3 35 -8 133 -18 218 -24 188 -13 251 -24 306 -51 39 -19 93 -66
128 -114 20 -26 20 -13 1 59 -20 76 -82 195 -142 270 l-46 60 -18 -63 c-33
-121 -100 -181 -151 -134 -22 20 -21 40 7 113 13 35 16 63 11 123 -3 42 -10
85 -15 95 -23 44 -250 138 -391 163 -77 13 -295 14 -362 1 l-46 -9 -84 84
c-99 101 -203 173 -290 202 -63 21 -225 47 -234 38 -3 -3 28 -12 68 -21 144
-32 282 -123 401 -265 54 -64 139 -171 220 -277 l19 -24 -191 0 c-188 0 -191
0 -206 23 -8 13 -31 86 -50 162 -21 86 -46 157 -63 185 -31 51 -92 91 -169
114 l-53 15 0 -77 c1 -123 41 -256 107 -354 18 -28 36 -55 39 -60 3 -4 -13 -8
-35 -8 -47 0 -1 -46 -497 500 -524 578 -765 840 -771 840 -3 0 15 -24 39 -52z
m1206 -1582 c-2 -1 -12 -8 -23 -16 -18 -14 -19 -13 -8 1 7 9 10 19 6 23 -4 4
1 4 10 0 10 -3 17 -7 15 -8z m362 -24 c0 -9 -55 -52 -66 -52 -10 0 49 59 59
60 4 0 7 -4 7 -8z m94 -29 c-10 -7 -21 -13 -26 -13 -4 0 -5 6 -2 13 2 7 14 13
25 13 19 0 19 -1 3 -13z m-53 -46 c-10 -9 -11 -8 -5 6 3 10 9 15 12 12 3 -3 0
-11 -7 -18z m-181 -71 c-47 -69 -70 -76 -29 -10 17 28 43 52 57 54 2 0 -11
-20 -28 -44z m400 -181 c15 -8 30 -20 32 -27 6 -16 -23 -118 -34 -118 -8 0
-10 7 -12 59 0 16 -11 43 -23 60 -13 16 -23 33 -23 36 0 10 31 5 60 -10z
m-375 -195 c-3 -5 -11 -10 -16 -10 -6 0 -7 5 -4 10 3 6 11 10 16 10 6 0 7 -4
4 -10z m-308 -46 c-3 -3 -12 -4 -19 -1 -8 3 -5 6 6 6 11 1 17 -2 13 -5z m-37
-85 c0 -6 -4 -7 -10 -4 -5 3 -10 11 -10 16 0 6 5 7 10 4 6 -3 10 -11 10 -16z
m994 -144 c-10 -8 -23 -14 -29 -14 -5 0 -1 6 9 14 11 8 24 15 30 15 5 0 1 -7
-10 -15z m-1569 -180 c16 -15 25 -36 25 -55 0 -33 -38 -80 -64 -80 -16 0 -46
26 -46 41 0 5 5 18 12 29 10 15 9 22 -6 39 -15 17 -16 23 -6 36 19 22 58 18
85 -10z"/>
<path d="M3606 3413 c-9 -26 -19 -80 -23 -120 -3 -39 -9 -76 -13 -83 -5 -8
-30 -2 -86 18 -126 46 -145 46 -59 0 172 -92 188 -117 189 -296 1 -112 2 -120
14 -91 7 18 16 75 20 128 6 78 10 96 24 99 9 2 54 -27 100 -64 87 -70 82 -63
-46 74 -43 46 -84 99 -92 118 -20 49 -30 184 -15 224 6 18 9 35 7 37 -2 2 -11
-18 -20 -44z"/>
<path d="M2280 2739 c0 -5 5 -7 10 -4 6 3 10 8 10 11 0 2 -4 4 -10 4 -5 0 -10
-5 -10 -11z"/>
<path d="M2211 2324 c0 -11 3 -14 6 -6 3 7 2 16 -1 19 -3 4 -6 -2 -5 -13z"/>
<path d="M2190 2265 c0 -8 5 -15 10 -15 6 0 10 7 10 15 0 8 -4 15 -10 15 -5 0
-10 -7 -10 -15z"/>
<path d="M2197 2220 c4 -14 0 -20 -10 -20 -9 0 -17 8 -19 18 -3 9 -5 -7 -6
-35 -2 -50 12 -71 24 -39 3 9 12 12 22 8 14 -5 15 -3 5 9 -8 9 -9 20 -3 29 14
22 12 50 -4 50 -9 0 -12 -7 -9 -20z m3 -34 c0 -3 -4 -8 -10 -11 -5 -3 -10 -1
-10 4 0 6 5 11 10 11 6 0 10 -2 10 -4z"/>
<path d="M2720 2107 c0 -15 4 -27 10 -27 5 0 9 9 7 20 -5 31 -17 36 -17 7z"/>
<path d="M3356 2093 c-14 -36 -18 -131 -7 -188 16 -86 63 -179 182 -355 158
-236 196 -329 187 -459 -3 -36 -15 -88 -27 -115 -12 -27 -19 -51 -17 -53 2 -3
24 7 48 21 198 116 311 377 264 606 -22 103 -58 172 -130 244 -72 73 -123 107
-328 222 -84 48 -156 88 -159 90 -4 2 -10 -4 -13 -13z"/>
<path d="M3160 1853 c0 -4 5 -15 10 -23 8 -13 10 -13 10 2 0 9 -4 20 -10 23
-5 3 -10 3 -10 -2z"/>
<path d="M2242 1785 c0 -16 2 -22 5 -12 2 9 2 23 0 30 -3 6 -5 -1 -5 -18z"/>
<path d="M2330 1771 c0 -5 7 -11 15 -15 31 -12 16 -38 -43 -71 -1 -1 4 -14 11
-28 8 -15 17 -24 20 -20 4 3 7 -14 7 -40 0 -40 -3 -46 -22 -49 -17 -2 -24 -11
-26 -32 -3 -24 -1 -28 10 -19 7 6 26 11 42 11 22 0 41 14 87 61 32 35 59 67
59 72 0 18 -22 8 -51 -23 -16 -18 -29 -27 -29 -20 0 9 -5 10 -19 3 -19 -11
-29 0 -37 39 -2 11 1 10 11 -3 20 -27 30 -1 11 28 -9 13 -12 26 -8 29 4 3 9
23 10 45 3 38 1 41 -23 41 -14 0 -25 -4 -25 -9z m80 -194 c0 -2 -10 -12 -22
-23 l-23 -19 19 23 c18 21 26 27 26 19z"/>
<path d="M2220 1714 c0 -8 4 -12 10 -9 6 3 7 -1 4 -9 -3 -9 -1 -16 5 -16 6 0
11 11 11 25 0 16 -6 25 -15 25 -8 0 -15 -7 -15 -16z"/>
<path d="M3090 1522 c-36 -24 -79 -55 -97 -68 -17 -13 -37 -24 -42 -24 -11 0
-10 3 21 67 19 36 14 47 -15 32 -12 -7 -17 -7 -13 -1 9 14 -20 22 -33 9 -16
-16 -14 -32 3 -18 11 9 12 6 8 -14 -2 -14 -7 -23 -10 -20 -6 6 -72 -83 -72
-98 0 -15 90 2 151 29 50 23 181 137 168 147 -2 2 -33 -17 -69 -41z"/>
<path d="M2490 1033 c0 -6 8 -17 18 -24 16 -13 16 -13 2 6 -8 11 -16 22 -17
24 -2 2 -3 0 -3 -6z"/>
</g>
</svg>
